MMMMMMMMMMMMMMMMMMMMMMMMMMMMMMMMMMMMMMMMMMMMMMMMMMMmddNMMMMMMMMM
MMMMMMMMMMMMMMMMMMMMMMMMMMMMMMMMMMMMMMMMMMMMMMdo:.     `:omMMMMM
MMMMMMMMMMMMMMMMMMMMMMMMMMMMMMMMMMMMMMMMMMMMs-            `-yNMM
MMMMMMMMMMMMMMMMMMMMMMMMMMMMMMMMMMMMMMMMMMm-     -ohmmhs/.   .yM
MMMMMMMMMMMMMMMMMMMMMMMMMMMMMMMMMMMMMMMMMm.    .yNmhyymMMNs`   -
MMMMMMMMMMMMMMMMMMMMMMMMMMNMMMMMMMMMMMMMm.   `oh+.    `-sNMh`   
MMMMMMMMMMMMMMMMMMMMMMMMMd-hMMMMMMMMMMMM/   -y/        :`/MMs   
MMMMMMMMMMMMMMMMMNyMMMMMMd``yMMMMMMMMMMd    -`        /m:`dMN-  
MMMMMMMMMMMMMMMMMm sMMMMMd` `yMMMMMMMMMs              `.` hMM/  
MMMMMMMMMMM+hMMMMm `sMMMMd`  `hMMMMMMMMo      `      `+yy-hMM+  
MMMMMMMMMMM:.mMMMm   dMMMd`   .mMMMMMMM/     +Nh:   /mMNd-NMM/  
MMMMMMMMMMM: /MMMm   -MMMd`    yMMMMMMM+     mMN-  +Nd/.`+Mm+   
MMh+::omMMM: `hMMm    hMMd`    /MMMMMMMo    -NMy  -Ns`   -.     
Ms     `dMM-  oMMm    +MMd`    -NMMMMMMh    .NM/  /m.        `` 
Ms     `dMM-  +MMm    :MMd`    .NMMMMMMN.    dM+  -d.     .odN- 
MMh+::omMMM-  +MMm    /MMd`    .NMMMMMMMy    -Nh`  o-   `oNm/`  
MMMMMMMMMMM:  yMMm    +MMd`    -NMMMMMMMMs    -hs`  /`  :MMo    
MMMMMMMMMMM- -NMMm    dMMd`    :MMMMMMMMMNh.    .`      .mMm`   
MMMMMMMMMMN-`hMMMm   :MMMd`    oMMMMMMMMMMMNo`         . :NM/   
MMMMMMMMMMN-oMMMMm  `dMMMd`   .mMMMMMMMMMMMMMm+`       sooMm-   
MMMMMMMMMMNyMMMMMm  sMMMMd`  `yMMMMMMMMMMMMMMMMd:      `+o/`    
MMMMMMMMMMMMMMMMMm`oMMMMMd`  sMMMMMMMMMMMMMMMMMMMy`             
MMMMMMMMMMMMMMMMMNhMMMMMMd``sMMMMMMMMMMMMMMMMMMMMMd.            
MMMMMMMMMMMMMMMMMMMMMMMMMd:dMMMMMMMMMMMMMMMMMMMMMMMh`           
MMMMMMMMMMMMMMMMMMMMMMMMMMMMMMMMMMMMMMMMMMMMMMMMMMMMy`          
MMMMMMMMMMMMMMMMMMMMMMMMMMMMMMMMMMMMMMMMMMMMMMMMMMMMMh.        /
MMMMMMMMMMMMMMMMMMMMMMMMMMMMMMMMMMMMMMMMMMMMMMMMMMMMMMNs:`  `/dM
MMMMMMMMMMMMMMMMMMMMMMMMMMMMMMMMMMMMMMMMMMMMMMMMMMMMMMMMMMNNMMMM

Fulltime.Killer.2001.DVDRip.XviD.MP3

Chuen jik sat sau (2001)
  102 min  -  Crime | Drama | Thriller   -  3 August 2001 (Hong Kong)
   6.9/10  
Users: (4,143 votes) 63 reviews | Critics: 93 reviews Metascore: 54/100 (based on 15 reviews from Metacritic.com)
Two very different hitmen find themselves to be in each other's way. They use all their skill to solve the problem.

Directors: Johnnie To, Ka-Fai Wai
Writers: Ho-Cheung Pang (novel), Ka-Fai Wai (screenplay), and 1 more credit »
Stars: Andy Lau, Takashi Sorimachi and Kelly Lin


Fulltime.Killer.2001.DVDRip.XviD.MP3

General
Complete name                    : D:\Downloads\Fulltime.Killer.2001.DVDRip.XviD.MP3-kroimpa\Fulltime.Killer.2001.DVDRip.XviD.MP3.avi
Format                           : AVI
Format/Info                      : Audio Video Interleave
File size                        : 699 MiB
Duration                         : 1h 40mn
Overall bit rate                 : 971 Kbps
Writing application              : VirtualDubMod 1.5.10.2 (build 2540/release)
Writing library                  : VirtualDubMod build 2540/release

Video
ID                               : 0
Format                           : MPEG-4 Visual
Format profile                   : Advanced Simple@L5
Format settings, BVOP            : 3
Format settings, QPel            : Yes
Format settings, GMC             : 3 warppoints
Format settings, Matrix          : Default (H.263)
Codec ID                         : XVID
Codec ID/Hint                    : XviD
Duration                         : 1h 40mn
Bit rate                         : 838 Kbps
Width                            : 720 pixels
Height                           : 392 pixels
Display aspect ratio             : 16:9
Frame rate                       : 25.000 fps
Color space                      : YUV
Chroma subsampling               : 4:2:0
Bit depth                        : 8 bits
Scan type                        : Progressive
Compression mode                 : Lossy
Bits/(Pixel*Frame)               : 0.119
Stream size                      : 603 MiB (86%)
Writing library                  : XviD 1.2.1 (UTC 2008-12-04)

Audio
ID                               : 1
Format                           : MPEG Audio
Format version                   : Version 1
Format profile                   : Layer 3
Codec ID                         : 55
Codec ID/Hint                    : MP3
Duration                         : 1h 40mn
Bit rate mode                    : Variable
Bit rate                         : 121 Kbps
Nominal bit rate                 : 128 Kbps
Channel(s)                       : 2 channels
Sampling rate                    : 48.0 KHz
Compression mode                 : Lossy
Stream size                      : 86.9 MiB (12%)
Alignment                        : Aligned on interleaves
Interleave, duration             : 24 ms (0.60 video frame)
Interleave, preload duration     : 631 ms
Writing library                  : LAME3.98r
Encoding settings                : -m s -V 4 -q 0 -lowpass 17 --abr 128


English .srt subtitles included